<?xml version="1.0" encoding="UTF-8"?><svg xmlns="http://www.w3.org/2000/svg" viewBox="0 0 1024 1032.92"><defs><style>.f{fill:#ff4e00;}</style></defs><g id="a"/><g id="b"/><g id="c"><g id="d"><path class="f" d="M1011.83,565.34l-231.58-133.69V164.26c0-8.72-4.66-16.77-12.22-21.11L524.28,3.23c-7.53-4.32-16.8-4.31-24.32,.05-.9,.52-1.76,1.1-2.58,1.73L255.97,143.58c-7.56,4.35-12.22,12.39-12.22,21.12V432.08L12.17,565.78c-7.53,4.35-12.17,12.39-12.17,21.08v281.48c0,.29,.01,.6,.01,.89,.02,.46,.06,.93,.1,1.39,.04,.4,.09,.78,.15,1.17,.06,.44,.13,.89,.22,1.33,.06,.27,.12,.55,.18,.82,.37,1.53,.88,3.02,1.52,4.46,.01,.01,.01,.02,.02,.04,.21,.46,.44,.93,.67,1.38,2.13,3.96,5.33,7.32,9.35,9.63l.06,.04,244,140.21c7.52,4.32,16.77,4.32,24.28-.01l231.28-133.26,231.93,133.27c3.75,2.17,7.94,3.24,12.12,3.24s8.41-1.08,12.17-3.26l243.54-140.58,.19-.11c7.55-4.35,12.18-12.39,12.18-21.09v-281.43c0-8.7-4.64-16.74-12.17-21.09ZM48.69,600.92l231.58-133.7c7.52-4.35,12.17-12.38,12.17-21.08V178.79l195.06-111.97v505.99L48.69,826.16v-225.23Zm707.19,379.55l-231.92-133.26c-7.51-4.32-16.76-4.32-24.28,.01l-231.27,133.26-195.29-112.22,438.74-253.3,439.06,252.94-195.04,112.57Zm219.43-154.76l-438.81-253.34V66.39l195.06,111.96V445.71c0,8.69,4.65,16.72,12.17,21.08l231.58,133.69v225.23Z"/></g></g><g id="e"/></svg>