<?xml version="1.0" encoding="UTF-8"?><svg xmlns="http://www.w3.org/2000/svg" viewBox="0 0 3629.71 1024"><defs><style>.f{fill:#ff4d10;}</style></defs><g id="a"/><g id="b"><g><g id="c"><g><path d="M1615.57,434.86v-164.12h-199.5v164.12h-76.55V28.9h76.55V199.98h199.5V28.9h75.97V434.86h-75.97Z"/><path d="M1835.37,67.76c0,55.09-83.51,55.09-83.51,0s83.51-55.1,83.51,0Zm-77.13,79.45V434.28h70.75V147.21h-70.75Z"/><path d="M2189.14,147.79l-121.79,287.65h-76.55l-122.37-287.65h77.13l39.44,94.53,44.07,120.63,43.5-119.47,39.43-95.69h77.13Z"/><path d="M2283.67,316.55c4.64,35.38,35.38,60.89,85.25,60.89,26.1,0,60.31-9.86,76.55-26.68l45.24,44.66c-30.16,31.32-79.45,46.4-122.95,46.4-98.59,0-157.17-60.89-157.17-152.53s59.16-149.63,151.95-149.63,155.42,59.16,144.4,176.88h-223.28Zm155.42-58.57c-4.64-37.12-33.64-55.68-74.23-55.68-38.28,0-69.59,18.56-80.03,55.68h154.27Z"/></g><g><path d="M1699.08,995.44h-91.05l-118.31-135.71h-73.65v135.71h-76.55v-406.54c64.37,0,128.75,.58,193.12,.58,95.69,.58,146.14,64.37,146.14,134.55,0,55.67-25.52,111.93-102.65,127.59l122.95,138.61v5.22Zm-283.01-334.62v129.9h116.57c48.71,0,69.59-32.48,69.59-64.95s-21.46-64.95-69.59-64.95h-116.57Z"/><path d="M2009.35,852.77c0,82.35-56.25,149.04-149.04,149.04s-148.46-66.69-148.46-149.04,56.83-149.05,147.89-149.05,149.62,67.27,149.62,149.05Zm-226.75,0c0,43.5,26.1,84.09,77.71,84.09s77.71-40.6,77.71-84.09-30.15-84.67-77.71-84.67c-51.04,0-77.71,41.76-77.71,84.67Z"/><path d="M2128.82,590.06v158.32c16.82-29.58,63.8-45.81,93.95-45.81,83.51,0,145.57,51.03,145.57,149.62s-63.22,149.63-147.31,149.63c-34.79,0-70.17-11.6-92.21-45.81l-4.64,39.43h-66.11v-405.38h70.75Zm4.64,262.13c0,51.61,38.28,84.09,82.93,84.09s81.19-34.22,81.19-84.09-35.96-83.51-81.19-83.51-82.93,33.64-82.93,83.51Z"/><path d="M2704.71,852.77c0,82.35-56.25,149.04-149.04,149.04s-148.46-66.69-148.46-149.04,56.83-149.05,147.89-149.05,149.62,67.27,149.62,149.05Zm-226.75,0c0,43.5,26.1,84.09,77.71,84.09s77.71-40.6,77.71-84.09-30.15-84.67-77.71-84.67c-51.04,0-77.71,41.76-77.71,84.67Z"/><path d="M2847.38,628.91v81.19h78.87v60.89h-79.45v123.53c0,27.26,15.08,40.6,37.12,40.6,11.02,0,23.78-3.48,34.22-8.7l19.72,60.32c-20.3,8.12-37.12,11.6-58.57,12.18-62.06,2.32-102.65-33.05-102.65-104.39v-123.53h-53.35v-60.89h53.35v-73.65l70.75-7.54Z"/><path d="M3056.15,628.91c0,55.09-83.51,55.09-83.51,0s83.51-55.09,83.51,0Zm-77.13,79.45v287.07h70.75v-287.07h-70.75Z"/><path d="M3358.88,958.9c-33.05,32.48-67.85,45.24-110.19,45.24-82.93,0-151.94-49.88-151.94-151.36s69.01-151.37,151.94-151.37c40.6,0,71.91,11.6,103.23,42.33l-44.66,46.97c-16.82-15.08-37.69-22.62-57.41-22.62-47.56,0-82.35,34.8-82.35,84.67,0,54.51,37.12,83.51,81.19,83.51,22.62,0,45.24-6.38,62.63-23.77l47.55,46.39Z"/><path d="M3576.94,785.5c-20.3-19.14-43.5-25.52-70.75-25.52-33.64,0-52.19,10.44-52.19,28.42s16.82,29,53.35,31.32c53.93,3.48,122.37,15.66,122.37,91.63,0,50.45-41.18,93.95-122.95,93.95-45.24,0-90.47-7.54-132.23-51.04l34.79-50.45c20.3,22.62,66.7,39.44,98.59,40.02,26.68,.58,51.61-13.34,51.61-34.22,0-19.72-16.24-27.84-56.83-30.16-53.93-4.06-118.31-23.78-118.31-88.73s68.43-89.31,120.63-89.31c44.65,0,78.29,8.7,111.35,37.69l-39.44,46.4Z"/></g></g><path class="f" d="M1001.16,556.44l-225.61-130.24V165.68c0-10.05-5.4-19.35-14.14-24.38L521.75,3.72c-8.7-4.99-19.39-4.95-28.09,.08-1.01,.6-1.99,1.24-2.89,1.91L253.77,141.72c-8.74,5.03-14.1,14.33-14.1,24.41V426.61L14.06,556.85c-8.7,5.03-14.06,14.33-14.06,24.38v276.76c0,10.09,5.4,19.35,14.1,24.38l240,137.89c8.66,4.99,19.35,4.99,28.05,0l225.3-129.83,225.94,129.83c4.35,2.51,9.19,3.75,14.02,3.75s9.71-1.24,14.06-3.75l239.67-138.34c8.7-5.02,14.06-14.33,14.06-24.38v-276.72c0-10.05-5.36-19.35-14.06-24.38ZM56.25,597.47l225.6-130.24c8.7-5.03,14.06-14.33,14.06-24.38V182.41l183.42-105.26v487.85L56.25,809.27v-211.8Zm691.14,365.97l-225.94-129.87c-8.66-4.99-19.39-4.99-28.05,.04l-225.3,129.83-183.64-105.53,423.01-244.2,423.31,243.87-183.38,105.86Zm211.58-154.62l-423.08-244.24V76.69l183.42,105.3V442.44c0,10.05,5.36,19.35,14.06,24.34l225.61,130.28v211.77Z"/></g></g><g id="d"/><g id="e"/></svg>